<svg viewBox="0 0 12 13" xmlns="http://www.w3.org/2000/svg">
<path d="M7.33122 6.00409L11.5822 1.71409C11.7683 1.52579 11.8729 1.27039 11.8729 1.00409C11.8729 0.73779 11.7683 0.482395 11.5822 0.294092C11.396 0.105788 11.1435 0 10.8803 0C10.617 0 10.3645 0.105788 10.1784 0.294092L5.9373 4.59409L1.69623 0.294092C1.51007 0.105788 1.25759 -1.9841e-09 0.994327 0C0.731063 1.9841e-09 0.478581 0.105788 0.292425 0.294092C0.106269 0.482395 0.00168714 0.73779 0.00168714 1.00409C0.00168713 1.27039 0.106269 1.52579 0.292425 1.71409L4.54338 6.00409L0.292425 10.2941C0.199765 10.3871 0.12622 10.4977 0.07603 10.6195C0.0258404 10.7414 0 10.8721 0 11.0041C0 11.1361 0.0258404 11.2668 0.07603 11.3887C0.12622 11.5105 0.199765 11.6211 0.292425 11.7141C0.384327 11.8078 0.493667 11.8822 0.614136 11.933C0.734606 11.9838 0.863821 12.0099 0.994327 12.0099C1.12483 12.0099 1.25405 11.9838 1.37452 11.933C1.49499 11.8822 1.60433 11.8078 1.69623 11.7141L5.9373 7.41409L10.1784 11.7141C10.2703 11.8078 10.3796 11.8822 10.5001 11.933C10.6206 11.9838 10.7498 12.0099 10.8803 12.0099C11.0108 12.0099 11.14 11.9838 11.2605 11.933C11.3809 11.8822 11.4903 11.8078 11.5822 11.7141C11.6748 11.6211 11.7484 11.5105 11.7986 11.3887C11.8488 11.2668 11.8746 11.1361 11.8746 11.0041C11.8746 10.8721 11.8488 10.7414 11.7986 10.6195C11.7484 10.4977 11.6748 10.3871 11.5822 10.2941L7.33122 6.00409Z"/>
</svg>
