<svg width="12" height="12" viewBox="0 0 12 12" fill="none" xmlns="http://www.w3.org/2000/svg">
<path d="M7.1729 2.06862L9.9281 4.82382L4.30151 10.4511C4.15817 10.5942 3.98551 10.7046 3.79541 10.7745L3.67991 10.8116L0.841406 11.5858C0.786422 11.601 0.728569 11.6025 0.67288 11.5901C0.617192 11.5778 0.565356 11.5521 0.521883 11.5152C0.478411 11.4783 0.444618 11.4313 0.423447 11.3783C0.402275 11.3254 0.394365 11.268 0.400407 11.2113L0.411606 11.1553L1.18581 8.31752C1.23901 8.12152 1.33421 7.93952 1.46441 7.78552L1.54631 7.69592L7.1729 2.06792V2.06862ZM8.2705 0.971721C8.62776 0.61509 9.1095 0.411059 9.61423 0.402617C10.119 0.394174 10.6072 0.581979 10.9762 0.926462C11.3452 1.27094 11.5661 1.74521 11.5923 2.24932C11.6185 2.75344 11.448 3.24804 11.1167 3.62892L11.0257 3.72692L10.423 4.32892L7.6678 1.57372L8.2705 0.971721Z" fill="#3F8CFF"/>
</svg>
